<svg width="515" height="499" viewBox="0 0 515 499" fill="none" xmlns="http://www.w3.org/2000/svg">
<path d="M49.7357 251.92C49.9244 151.112 52.7867 116.882 52.7867 116.882C52.7867 116.882 39.8968 47.7687 205.639 59.7524C278.665 57.4228 362.732 55.3478 362.732 55.3478C362.732 55.3478 455.787 43.5023 460.504 122.352C465.221 201.202 465.182 337.442 465.182 337.442C465.182 337.442 470.566 432.299 401.911 436.591L187.79 440.003L128.879 440.416C128.879 440.416 61.7021 431.166 54.5088 363.959C47.3154 296.753 49.7357 251.92 49.7357 251.92Z" fill="#C972D5"/>
<path d="M445 277.5L399 375C411 390.2 428 391.333 435 390L493.5 285L445 277.5Z" fill="white"/>
<path d="M437.408 392.772C437.408 392.772 409.561 397.732 399.376 370.456L360.255 431.078C360.255 431.078 418.128 442.649 437.408 392.772Z" fill="#7528EB"/>
<path d="M374.586 434.368C366.061 434.368 360.223 433.225 359.842 433.151L356.796 432.538L399.884 365.76L401.354 369.705C410.788 394.961 435.97 390.868 437.038 390.677L440.729 390.032L439.386 393.522C429.074 420.185 407.932 429.534 392.015 432.686C385.648 433.966 379.641 434.368 374.586 434.368ZM363.808 429.471C368.896 430.095 379.567 430.878 391.317 428.53C411.719 424.458 426.102 413.236 434.119 395.183C426.324 395.468 408.112 393.935 398.985 374.961L363.808 429.471Z" fill="black"/>
<path d="M264.826 269.474C264.826 269.474 262.88 229.761 260.056 215.642C257.232 201.522 238.904 143.628 333.55 141.238C344.401 142.327 370.884 146.23 376.965 177.06C383.046 207.889 379.789 228.724 378.054 242.188C376.32 255.651 371.973 308.395 382.613 314.91C393.252 321.414 264.826 269.474 264.826 269.474Z" fill="#EE92FB"/>
<path d="M383.205 317.554C381.968 317.554 380.117 316.909 377.219 315.904C374.078 314.815 369.509 313.122 363.639 310.891C353.772 307.147 340.086 301.795 322.942 295.005C293.773 283.446 264.318 271.537 264.022 271.42L262.763 270.913L262.7 269.559C262.679 269.168 260.733 229.835 257.972 216.033C257.824 215.282 257.623 214.404 257.401 213.41C255.064 202.918 250.22 181.079 263.969 163.49C275.941 148.165 299.336 139.969 333.487 139.102H333.613L333.74 139.112C359.388 141.672 374.617 154.3 379.017 176.626C384.866 206.271 382.169 226.81 380.392 240.39L380.127 242.42C377.367 263.858 375.495 308.046 383.692 313.069C385.722 314.317 385.447 315.661 385.098 316.348C384.707 317.205 384.125 317.554 383.205 317.554ZM266.867 268.015C305.121 283.477 359.631 305.19 377.526 311.546C369.594 293.726 375.886 242.484 375.96 241.902L376.225 239.861C377.97 226.546 380.603 206.43 374.892 177.461C370.842 156.933 357.294 145.775 333.476 143.353C300.721 144.199 278.459 151.857 267.322 166.113C254.8 182.126 259.358 202.643 261.547 212.511C261.78 213.537 261.981 214.446 262.129 215.229C264.688 228.026 266.497 260.834 266.867 268.015Z" fill="black"/>
<path d="M322.529 153.453C322.529 153.453 320.509 163.501 323.851 170.09Z" fill="#EE92FB"/>
<path d="M322.529 153.453C322.529 153.453 320.509 163.501 323.851 170.09" stroke="black" stroke-width="3.2233" stroke-miterlimit="10" stroke-linecap="round" stroke-linejoin="round"/>
<path d="M287.311 244.567C284.709 250.649 278.85 265.625 278.85 265.625L329.425 297.533L334.417 269.316L311.403 268.66L319.653 247.391L287.311 244.567Z" fill="#FDFDFD"/>
<path d="M329.425 299.648C329.034 299.648 328.642 299.542 328.293 299.32L277.718 267.412C276.861 266.873 276.512 265.794 276.883 264.853C276.946 264.704 282.784 249.771 285.375 243.732C285.735 242.896 286.592 242.389 287.501 242.463L319.843 245.287C320.509 245.339 321.102 245.71 321.451 246.27C321.8 246.831 321.863 247.529 321.63 248.153L314.47 266.629L334.481 267.2C335.094 267.222 335.676 267.507 336.056 267.983C336.448 268.459 336.606 269.083 336.501 269.686L331.509 297.903C331.382 298.601 330.927 299.183 330.282 299.468C330.007 299.585 329.721 299.648 329.425 299.648ZM281.451 264.768L327.892 294.064L331.91 271.357L311.35 270.775C310.663 270.754 310.028 270.405 309.648 269.834C309.267 269.263 309.193 268.544 309.436 267.898L316.67 249.253L288.664 246.81C286.486 252.013 282.9 261.077 281.451 264.768Z" fill="black"/>
<path d="M321.673 268.945C321.673 268.945 336.004 275.386 323.873 298.252C311.742 321.118 361.619 401.338 361.619 401.338L386.97 319.743C386.981 319.754 365.215 264.609 321.673 268.945Z" fill="#7528EB" stroke="black" stroke-width="4" stroke-miterlimit="10" stroke-linecap="round" stroke-linejoin="round"/>
<path d="M339.018 301.52C339.018 301.52 375.939 311.716 365.744 357.172" stroke="black" stroke-width="4" stroke-miterlimit="10" stroke-linecap="round" stroke-linejoin="round"/>
<path d="M424.188 268.216C412.057 269.792 404.611 273.726 395.801 289.432C386.991 305.137 363.269 358.166 363.269 358.166L395.791 389.979L435.483 302.112C435.483 302.112 427.488 277.311 403.797 294.677C403.797 294.677 419.503 281.446 425.288 280.072C431.073 278.697 439.069 266.291 424.188 268.216Z" fill="white"/>
<path d="M395.791 392.095C395.241 392.095 394.712 391.883 394.31 391.492L361.788 359.679C361.154 359.065 360.974 358.113 361.334 357.299C362.307 355.131 385.193 304.006 393.951 288.395C403.31 271.716 411.697 267.697 423.913 266.111C432.406 265.011 434.32 268.406 434.711 270.532C435.547 275.111 430.301 281.045 425.774 282.123C424.061 282.536 421.163 284.26 418.011 286.417C420.201 286.269 422.295 286.534 424.304 287.179C433.781 290.246 437.345 301.002 437.482 301.457C437.641 301.954 437.609 302.493 437.398 302.98L397.705 390.847C397.42 391.471 396.848 391.925 396.172 392.052C396.045 392.084 395.918 392.095 395.791 392.095ZM365.797 357.69L395.103 386.352L433.188 302.038C432.289 299.828 429.148 293.186 422.982 291.208C417.969 289.59 411.93 291.335 405.045 296.38C404.125 297.057 402.835 296.877 402.137 295.978C401.428 295.079 401.565 293.789 402.433 293.049C404.083 291.663 418.699 279.458 424.801 278.009C427.625 277.332 430.893 273.155 430.555 271.304C430.396 270.437 428.45 269.802 424.463 270.32C413.136 271.79 406.23 275.175 397.652 290.479C389.752 304.524 369.551 349.335 365.797 357.69Z" fill="black"/>
<path d="M409.804 303.667C409.804 303.667 413.443 296.793 423.511 297.988Z" fill="white"/>
<path d="M409.804 303.667C409.804 303.667 413.443 296.793 423.511 297.988" stroke="black" stroke-width="4" stroke-miterlimit="10" stroke-linecap="round" stroke-linejoin="round"/>
<path d="M412.173 311.832C412.173 311.832 418.71 304.725 425.246 308.426Z" fill="white"/>
<path d="M412.173 311.832C412.173 311.832 418.71 304.725 425.246 308.426" stroke="black" stroke-width="4" stroke-miterlimit="10" stroke-linecap="round" stroke-linejoin="round"/>
<path d="M444.685 264.493L398.329 337.839C395.759 341.9 397.98 347.368 402.486 348.098L447.107 355.279C449.571 355.681 452.046 354.465 453.389 352.191L498.401 276.243C500.887 272.055 498.422 266.598 493.832 266.111L450.544 261.532C448.249 261.288 445.986 262.431 444.685 264.493Z" fill="#1A1A1A"/>
<path d="M395.791 389.979C395.791 389.979 379.482 421.2 371.825 427.641C367.954 430.909 366.812 431.903 366.632 432.094C366.759 432.009 367.193 431.671 367.193 431.671L369.202 438.122H257.359V277.343C257.359 278.316 258.29 276.529 260.32 273.959C264.625 268.48 273.9 259.416 289.701 265.614C312.937 274.731 331.096 297.099 348.23 334.571C355.443 350.34 358.795 357.87 360.276 361.297C360.53 361.889 360.72 362.365 360.879 362.735L364.972 354.93C364.972 354.93 396.394 357.14 395.791 389.979Z" fill="#7528EB" stroke="black" stroke-width="4" stroke-miterlimit="10" stroke-linecap="round" stroke-linejoin="round"/>
<path d="M297.009 355.469C297.009 355.469 332.767 440.851 367.521 430.529" stroke="black" stroke-width="4" stroke-miterlimit="10" stroke-linecap="round" stroke-linejoin="round"/>
<path d="M356.796 362.428C332.27 294.498 286.105 261.161 261.526 276.137C265.778 270.807 274.937 261.976 290.547 268.015C313.497 276.888 331.435 298.675 348.357 335.174C355.485 350.53 357.399 359.097 358.859 362.428H356.796Z" fill="white"/>
<path d="M320.013 160.772C326.316 159.048 322.477 222.421 344.623 226.334C357.865 228.354 359.388 234.361 358.732 237.185C358.076 240.009 353.349 249.126 339.43 243.267C335.285 243.267 327.902 256.73 310.536 256.73C293.17 256.73 271.679 248.914 273.202 217.873C274.725 186.821 290.621 168.8 320.013 160.772Z" fill="#FDFDFD" stroke="black" stroke-width="4" stroke-miterlimit="10" stroke-linejoin="round"/>
<path d="M290.568 187.255C290.568 187.255 314.449 199.894 287.311 221.247" stroke="black" stroke-width="4" stroke-miterlimit="10" stroke-linecap="round" stroke-linejoin="round"/>
<path d="M284.053 228.344C284.053 228.344 283.62 239.353 295.338 235.007Z" fill="white"/>
<path d="M284.053 228.344C284.053 228.344 283.62 239.353 295.338 235.007" stroke="black" stroke-width="4" stroke-miterlimit="10" stroke-linecap="round" stroke-linejoin="round"/>
<path d="M314.449 200.063C314.449 200.063 324.433 199.397 329.425 205.911" stroke="black" stroke-width="5" stroke-miterlimit="10" stroke-linecap="round" stroke-linejoin="round"/>
<path d="M321.357 219.393C322.668 216.511 322.257 213.504 320.439 212.677C318.621 211.85 316.084 213.515 314.772 216.396C313.461 219.278 313.872 222.285 315.69 223.112C317.508 223.939 320.045 222.274 321.357 219.393Z" fill="black"/>
<path d="M291.41 204.468C292.721 201.587 292.31 198.58 290.492 197.752C288.673 196.925 286.136 198.59 284.825 201.472C283.514 204.353 283.925 207.36 285.743 208.188C287.561 209.015 290.098 207.35 291.41 204.468Z" fill="black"/>
<path d="M495.387 283.044C489.062 281.362 469.581 276.708 467.138 282.293C464.219 288.977 483.256 293.366 483.256 293.366C483.256 293.366 462.664 289.442 459.872 292.816C456.773 296.56 458.772 299.87 458.772 299.87L476.773 304.196C476.773 304.196 460.718 303.836 457.249 306.523C456.202 307.337 454.552 310.446 458.032 312.065C461.511 313.683 468.291 314.148 468.291 314.148L473.008 314.952L475.895 315.449" fill="white"/>
<path d="M495.387 283.044C489.062 281.362 469.581 276.708 467.138 282.293C464.219 288.977 483.256 293.366 483.256 293.366C483.256 293.366 462.664 289.442 459.872 292.816C456.773 296.56 458.772 299.87 458.772 299.87L476.773 304.196C476.773 304.196 460.718 303.836 457.249 306.523C456.202 307.337 454.552 310.446 458.032 312.065C461.511 313.683 468.291 314.148 468.291 314.148L473.008 314.952L475.895 315.449" stroke="black" stroke-width="4" stroke-miterlimit="10" stroke-linecap="round" stroke-linejoin="round"/>
<path d="M437.408 392.772C480.062 320.007 497.661 286.703 497.661 286.703Z" fill="white"/>
<path d="M437.408 392.772C480.062 320.007 497.661 286.703 497.661 286.703" stroke="black" stroke-width="4" stroke-miterlimit="10" stroke-linecap="round" stroke-linejoin="round"/>
<path d="M124.916 392.168L122.372 420.66C118.811 420.66 109.347 418.625 99.9854 410.484C90.6236 402.344 27.7373 301.604 22.6494 290.41L74.0371 284.305L124.916 392.168Z" fill="white"/>
<path d="M23.0752 291.568C23.0752 291.568 87.315 396.769 93.1002 402.946C98.8854 409.122 108.594 421.105 125.03 420.164" stroke="#1A1A1A" stroke-width="4.0049" stroke-miterlimit="10" stroke-linecap="round" stroke-linejoin="round"/>
<path d="M266.772 280.294C266.772 280.294 257.116 250.152 227.873 249.041C198.63 247.931 164.701 255.397 164.701 255.397C164.701 255.397 122.492 267.846 120.842 292.731C119.181 317.617 126.087 392.846 126.087 392.846L120.588 438.196H255.466L266.772 280.294Z" fill="#EE92FB"/>
<path d="M257.423 440.333H118.187L123.951 392.824C123.465 387.441 117.108 316.94 118.726 292.604C119.456 281.69 127.61 271.42 142.332 262.906C153.184 256.635 163.665 253.504 164.098 253.377L164.246 253.346C164.585 253.272 198.778 245.837 227.957 246.936C258.332 248.089 268.686 279.342 268.792 279.659L268.919 280.051L257.423 440.333ZM122.967 436.092H253.488L264.625 280.579C263.388 277.057 253.774 252.161 227.788 251.177C199.804 250.12 167.028 257.09 165.219 257.47C163.326 258.052 124.448 270.215 122.936 292.89C121.307 317.332 128.107 391.915 128.171 392.666L128.192 392.888L122.967 436.092Z" fill="black"/>
<path d="M181.549 229.147L191.438 252.425C191.438 252.425 179.402 258.888 181.549 270.098C183.696 281.309 197.678 275.27 197.678 275.27L237.455 251.347L223.843 216.414L181.549 229.147Z" fill="#FDFDFD" stroke="black" stroke-width="4.0049" stroke-miterlimit="10" stroke-linejoin="round"/>
<path d="M241.685 254.371C241.685 254.371 233.372 249.94 230.517 249.824C224.065 249.549 196.831 265.138 193.669 280.294C190.507 295.449 241.685 254.371 241.685 254.371Z" fill="#EE92FB"/>
<path d="M163.041 341.012C163.041 341.012 182.712 303.191 186.604 292.763C190.496 282.335 204.753 254.467 236.661 249.337" stroke="black" stroke-width="4.0049" stroke-miterlimit="10" stroke-linecap="round" stroke-linejoin="round"/>
<path d="M213.246 372.666C213.246 372.666 229.121 348.108 234.44 328.437" stroke="black" stroke-width="4.0049" stroke-miterlimit="10" stroke-linecap="round" stroke-linejoin="round"/>
<path d="M84.4172 258.168C81.953 259.416 85.5171 268.121 90.213 269.506C94.8982 270.892 102.904 277.248 102.904 278.083C102.904 278.919 86.6277 276.698 87.1776 282.79C87.7276 288.882 100.419 336.443 100.419 336.443C100.419 336.443 128.287 401.434 133.523 406.69C138.768 411.946 159.73 447.345 196.694 397.838C212.146 375.162 213.246 372.666 213.246 372.666C213.246 372.666 176.557 370.752 163.041 341.012L156.42 351.376C156.42 351.376 125.802 286.386 123.041 282.24C120.281 278.083 103.454 248.491 84.4172 258.168Z" fill="#FDFDFD" stroke="black" stroke-width="4.0049" stroke-miterlimit="10" stroke-linejoin="round"/>
<path d="M90.8263 299.024C90.8263 299.024 100.028 299.521 103.317 303.805" stroke="black" stroke-width="4.0049" stroke-miterlimit="10" stroke-linecap="round" stroke-linejoin="round"/>
<path d="M88.8591 288.321C88.8591 288.321 104.797 286.153 109.398 292.752" stroke="black" stroke-width="4.0049" stroke-miterlimit="10" stroke-linecap="round" stroke-linejoin="round"/>
<path d="M20.1773 247.148C20.1773 247.148 11.7693 250.469 14.572 257.883C17.3747 265.297 52.5511 329.42 52.5511 329.42C52.5511 329.42 56.8873 337.342 66.0569 337.088C75.237 336.834 106.839 338.368 106.839 338.368C106.839 338.368 112.698 333.767 110.403 328.405C108.108 323.043 73.1958 256.243 73.1958 256.243C73.1958 256.243 69.0817 249.189 62.4716 248.935C55.8614 248.682 20.1773 247.148 20.1773 247.148Z" fill="#1A1A1A"/>
<path d="M22.1406 286.34C22.1406 286.34 52.1809 281.224 56.3796 292.752C56.919 295.164 57.8497 298.781 39.1404 299.024C39.1404 299.024 57.0565 299.003 60.5043 302.06C63.9522 305.116 62.3657 310.573 59.7111 310.838C57.0565 311.102 44.0478 312.435 44.0478 312.435C44.0478 312.435 59.4467 312.17 60.9062 315.364C62.3658 318.558 52.9424 320.684 51.0809 321.213C49.2195 321.742 48.5638 322.281 48.5638 322.281" fill="white"/>
<path d="M22.1406 286.34C22.1406 286.34 52.1809 281.224 56.3796 292.752C56.919 295.164 57.8497 298.781 39.1404 299.024C39.1404 299.024 57.0565 299.003 60.5043 302.06C63.9522 305.116 62.3657 310.573 59.7111 310.838C57.0565 311.102 44.0478 312.435 44.0478 312.435C44.0478 312.435 59.4467 312.17 60.9062 315.364C62.3658 318.558 52.9424 320.684 51.0809 321.213C49.2195 321.742 48.5638 322.281 48.5638 322.281" stroke="#1A1A1A" stroke-width="4.0049" stroke-miterlimit="10" stroke-linecap="round" stroke-linejoin="round"/>
<path d="M150.624 214.478C150.624 214.478 129.387 190.417 130.762 173.548C132.137 156.679 139.593 145.892 156.695 135.104C173.797 124.316 195.594 108.833 197.244 108.833C198.894 108.833 203.315 111.879 201.654 123.766C201.654 123.766 214.621 112.429 215.171 120.17C215.721 127.912 213.51 131.783 217.106 138.7C220.691 145.617 228.972 166.907 229.247 173.273C229.522 179.64 172.697 217.799 172.697 217.799L150.624 214.478Z" fill="#7528EB" stroke="black" stroke-width="4.0049" stroke-miterlimit="10" stroke-linecap="round" stroke-linejoin="round"/>
<path d="M222.69 176.89C222.69 176.89 225.176 169.55 231.627 169.698C238.068 169.847 239.464 182.908 237.444 186.726C235.434 190.544 232.061 194.648 227.227 195.684" fill="#FDFDFD"/>
<path d="M222.69 176.89C222.69 176.89 225.176 169.55 231.627 169.698C238.068 169.847 239.464 182.908 237.444 186.726C235.434 190.544 232.061 194.648 227.227 195.684" stroke="black" stroke-width="4.0049" stroke-miterlimit="10" stroke-linejoin="round"/>
<path d="M147.208 210.3C147.208 210.3 144.067 217.936 147.208 222.135C150.349 226.323 159.466 230.099 168.582 224.335L160.661 209.497L147.208 210.3Z" fill="white" stroke="black" stroke-width="4.0049" stroke-miterlimit="10"/>
<path d="M150.899 186.821C148.668 178.456 144.828 170.227 152.56 168.292C160.28 166.356 196.44 169.878 204.425 143.681C204.425 143.681 227.598 162.211 227.873 209.772C228.148 257.343 178.218 234.107 174.632 230.512C171.036 226.926 153.85 197.863 150.899 186.821Z" fill="#FDFDFD" stroke="black" stroke-width="4.0049" stroke-miterlimit="10" stroke-linejoin="round"/>
<path d="M181.295 195.991C183.293 195.991 184.912 193.424 184.912 190.259C184.912 187.093 183.293 184.526 181.295 184.526C179.297 184.526 177.678 187.093 177.678 190.259C177.678 193.424 179.297 195.991 181.295 195.991Z" fill="black"/>
<path d="M209.364 188.418C211.362 188.418 212.981 185.852 212.981 182.686C212.981 179.52 211.362 176.954 209.364 176.954C207.367 176.954 205.747 179.52 205.747 182.686C205.747 185.852 207.367 188.418 209.364 188.418Z" fill="black"/>
<path d="M161.941 191.517C161.941 191.517 160.566 171.338 184.563 176.594" stroke="black" stroke-width="4.0049" stroke-miterlimit="10" stroke-linecap="round" stroke-linejoin="round"/>
<path d="M212.146 166.081C212.146 166.081 188.698 170.206 196.419 191.517C204.415 200.38 209.385 199.27 209.11 203.14C208.835 207.011 205.8 209.497 205.8 209.497" stroke="black" stroke-width="4.0049" stroke-miterlimit="10" stroke-linecap="round" stroke-linejoin="round"/>
<path d="M184.552 216.414C184.552 216.414 191.448 228.301 201.379 217.799" stroke="black" stroke-width="4.0049" stroke-miterlimit="10" stroke-linecap="round" stroke-linejoin="round"/>
<path d="M26.9038 223.415C28.2999 223.415 29.6642 223.055 30.8487 222.368C33.2918 223.764 36.3061 223.764 38.7492 222.368C39.9443 223.045 41.298 223.415 42.7046 223.415C43.8469 223.415 44.767 222.484 44.767 221.353C44.767 220.21 43.8363 219.29 42.7046 219.29C41.7528 219.29 40.8432 218.941 40.1346 218.307C39.352 217.609 38.1675 217.609 37.3742 218.307C35.9042 219.618 33.6937 219.618 32.2236 218.307C31.441 217.609 30.2565 217.609 29.4632 218.307C28.7546 218.941 27.8345 219.29 26.8932 219.29C24.7674 219.29 23.0329 217.556 23.0329 215.43C23.0329 214.288 22.1022 213.368 20.9706 213.368C19.8283 213.368 18.9082 214.298 18.9082 215.43C18.9082 219.83 22.4935 223.415 26.9038 223.415Z" fill="black"/>
<path d="M87.0717 175.716C88.2139 175.716 89.134 174.786 89.134 173.654C89.134 170.439 91.7569 167.816 94.9721 167.816C98.1873 167.816 100.81 170.439 100.81 173.654C100.81 174.796 101.741 175.716 102.873 175.716C104.015 175.716 104.935 174.786 104.935 173.654C104.935 168.154 100.461 163.681 94.9615 163.681C89.4619 163.681 84.9882 168.154 84.9882 173.654C85.0093 174.796 85.9294 175.716 87.0717 175.716Z" fill="black"/>
<path d="M99.1076 217.799C99.1076 220.559 94.9723 220.559 94.9723 217.799C94.9723 215.039 99.1076 215.039 99.1076 217.799Z" fill="black"/>
<path d="M249.48 105.395C249.48 108.156 245.344 108.156 245.344 105.395C245.344 102.635 249.48 102.635 249.48 105.395Z" fill="black"/>
<path d="M418.963 152.65C418.963 155.41 414.828 155.41 414.828 152.65C414.828 149.889 418.963 149.9 418.963 152.65Z" fill="black"/>
<path d="M51.9587 221.353C51.9587 224.113 47.8234 224.113 47.8234 221.353C47.8234 218.592 51.9587 218.592 51.9587 221.353Z" fill="black"/>
<path d="M444.864 231.22C444.864 233.981 440.729 233.981 440.729 231.22C440.729 228.46 444.864 228.46 444.864 231.22Z" fill="black"/>
<path d="M457.26 200.232C457.26 202.992 453.124 202.992 453.124 200.232C453.124 197.472 457.26 197.482 457.26 200.232Z" fill="black"/>
<path d="M75.3217 193.008C75.3217 195.769 71.1864 195.769 71.1864 193.008C71.1864 190.248 75.3217 190.248 75.3217 193.008Z" fill="black"/>
<path d="M412.639 231.199C413.167 230.036 414.542 229.486 415.737 230.025C416.658 230.438 417.102 230.871 417.186 233.05C417.25 234.753 419.238 235.641 420.55 234.573C421.565 233.748 422.231 233.399 422.792 233.399C423.077 233.399 423.395 233.484 423.775 233.653C424.96 234.182 425.489 235.578 424.949 236.752C423.765 239.374 420.243 240.03 415.314 241.691C414.997 240.919 414.669 240.178 414.341 239.459C412.617 235.578 411.687 233.293 412.639 231.199ZM412.194 245.033C412.596 246.101 413.791 246.64 414.86 246.238C420.624 244.06 426.462 243.457 428.714 238.454C430.185 235.197 428.736 231.358 425.468 229.888C423.923 229.19 422.358 229.042 420.74 229.644C420.222 228.301 419.259 227.074 417.44 226.26C414.151 224.779 410.333 226.281 408.874 229.496C407.128 233.367 408.799 237.143 410.566 241.13C411.105 242.378 411.676 243.658 412.194 245.033Z" fill="black"/>
<path d="M72.7727 216.572C72.339 216.371 72.1381 215.853 72.339 215.419C72.4977 215.07 72.5717 214.912 73.7562 214.859C75.459 214.795 76.3474 212.807 75.2792 211.496C74.5283 210.576 74.6023 210.417 74.761 210.057C74.9513 209.624 75.4696 209.412 75.9138 209.613C77.257 210.216 77.7329 212.236 78.6319 215.028C75.9138 216.213 74.1158 217.175 72.7727 216.572ZM77.606 205.837C75.0783 204.695 72.1169 205.827 70.9853 208.344C70.4671 209.497 70.4142 210.512 70.6257 211.4C69.8219 211.834 69.0921 212.543 68.5633 213.696C67.4317 216.213 68.5528 219.185 71.0699 220.316C74.7187 221.966 78.0608 219.576 81.9528 218.106C83.021 217.704 83.5604 216.509 83.1585 215.441C82.82 214.563 81.2759 207.498 77.606 205.837Z" fill="black"/>
<path d="M421.978 170.82L419.82 168.662L421.978 166.504C422.781 165.701 422.781 164.389 421.978 163.585C421.174 162.782 419.862 162.782 419.059 163.585L415.441 167.203C414.638 168.006 414.638 169.318 415.441 170.122L417.599 172.279L415.441 174.437C414.638 175.24 414.638 176.552 415.441 177.356L419.059 180.973C419.862 181.777 421.174 181.777 421.978 180.973C422.781 180.169 422.781 178.857 421.978 178.054L419.82 175.896L421.978 173.739C422.781 172.935 422.781 171.623 421.978 170.82Z" fill="black"/>
<path d="M244.953 117.748L248.052 118.372L246.656 119.768C245.524 120.9 246.064 122.846 247.618 123.237C253.414 124.665 253.181 124.676 253.626 124.676C254.556 124.676 255.392 124.052 255.625 123.11C255.9 122 255.223 120.879 254.123 120.604L252.156 120.117L253.71 118.563C254.874 117.399 254.271 115.4 252.653 115.072L245.768 113.698C244.646 113.475 243.557 114.195 243.335 115.316C243.102 116.437 243.832 117.526 244.953 117.748Z" fill="black"/>
<path d="M259.813 97.1353C260.955 97.1353 261.875 98.066 261.875 99.1977C261.875 100.329 260.944 101.26 259.813 101.26C258.681 101.26 257.75 100.329 257.75 99.1977C257.75 98.066 258.681 97.1353 259.813 97.1353ZM259.813 105.395C263.229 105.395 266.01 102.614 266.01 99.1977C266.01 95.7815 263.229 93 259.813 93C256.397 93 253.615 95.7815 253.615 99.1977C253.615 102.614 256.397 105.395 259.813 105.395Z" fill="black"/>
<path d="M451.062 220.887C448.788 220.887 446.927 219.036 446.927 216.752C446.927 214.468 448.778 212.617 451.062 212.617C453.336 212.617 455.197 214.468 455.197 216.752C455.197 219.036 453.336 220.887 451.062 220.887ZM451.062 208.503C446.504 208.503 442.802 212.204 442.802 216.763C442.802 221.321 446.504 225.023 451.062 225.023C455.62 225.023 459.322 221.321 459.322 216.763C459.322 212.204 455.62 208.503 451.062 208.503Z" fill="black"/>
</svg>
