<svg width="515" height="499" viewBox="0 0 515 499" fill="none" xmlns="http://www.w3.org/2000/svg">
<path d="M51.7001 242.3C56.0001 143.6 60.2001 110.2 60.2001 110.2C60.2001 110.2 50.4001 42 212.2 60.5C283.8 61.2 366.2 62.6 366.2 62.6C366.2 62.6 457.8 54.8 459.2 132.2C460.6 209.6 455 343 455 343C455 343 456.4 436.1 389 437.5L179.2 432.1L121.5 430.1C121.5 430.1 56.1001 418.3 51.8001 352.2C47.5001 286.1 51.7001 242.3 51.7001 242.3Z" fill="#DD59EE"/>
<path d="M472.9 287.1L461.1 313.1C461.1 313.1 453.1 311.7 451.2 310C449.3 308.4 448.7 304.2 448.7 304.2L442.3 299.7C442.3 299.7 422.9 297 414.9 292.1C412 290.3 411.3 288.3 411.7 286.5C412.3 283.4 416 280.8 416 280.8C409 274.2 417.2 267.2 417.2 267.2C416.4 250.9 437.3 259.6 437.3 259.6C437.3 259.6 440.3 259.6 442.5 250.7C444.1 244.2 450.3 244.1 453.5 244.5C454.6 244.7 455.4 244.9 455.4 244.9C455.4 244.9 454.8 252.5 454.2 257.3C453.6 262 456.3 280.6 459.5 277.3C462.7 274 469.6 275.4 472.1 278.1C474.6 280.7 472.9 287.1 472.9 287.1Z" fill="#FAD1FF"/>
<path d="M461.2 314.6C461.1 314.6 461 314.6 460.9 314.6C459.5 314.3 452.3 313 450.3 311.2C448.5 309.6 447.7 306.5 447.4 305.2L441.8 301.2C439 300.8 421.8 298.1 414.1 293.4C410.2 291 409.8 288.2 410.2 286.2C410.7 283.8 412.5 281.8 413.8 280.6C412.3 278.8 411.6 276.8 411.7 274.7C411.8 270.8 414.5 267.7 415.7 266.5C415.6 262.4 416.9 259.4 419.5 257.6C425.1 253.7 435 257 437.4 257.9C438 257.5 439.7 256.1 441.1 250.3C442.5 244.8 447.1 242.1 453.7 243C454.9 243.2 455.7 243.4 455.8 243.4C456.5 243.6 456.9 244.3 456.9 245C456.9 245.1 456.3 252.7 455.7 257.4C455.1 261.7 457.2 273.5 458.8 275.9C460.4 274.5 462.5 273.8 465 273.8C468.2 273.9 471.5 275.1 473.2 277C476.1 280.2 474.6 286.7 474.4 287.5C474.4 287.6 474.4 287.7 474.3 287.7L462.5 313.7C462.3 314.2 461.8 314.6 461.2 314.6ZM426.5 258.7C424.5 258.7 422.6 259.1 421.2 260C419.4 261.3 418.5 263.6 418.7 267C418.7 267.5 418.5 267.9 418.2 268.2C418.2 268.2 414.7 271.2 414.7 274.7C414.7 276.4 415.4 278 417.1 279.6C417.4 279.9 417.6 280.3 417.6 280.8C417.6 281.2 417.3 281.7 417 281.9C416.1 282.5 413.7 284.6 413.3 286.7C413.2 287.3 412.9 288.9 415.8 290.8C423.5 295.5 442.5 298.2 442.7 298.2C442.9 298.2 443.2 298.3 443.4 298.5L449.8 303C450.1 303.2 450.4 303.6 450.4 304C450.6 305.4 451.3 307.9 452.4 308.9C453.3 309.7 457 310.7 460.4 311.4L471.6 286.6C472 285 472.6 280.7 471.1 279C469.9 277.7 467.4 276.8 465 276.8C463.1 276.8 461.6 277.3 460.6 278.3C459.8 279.1 458.7 279.4 457.7 278.9C453.7 277 452.3 260.5 452.7 257C453.2 253.5 453.6 248.4 453.8 246C453.7 246 453.5 245.9 453.3 245.9C449.7 245.4 445.2 245.9 444 250.9C441.7 260.2 438.3 260.9 437.3 260.9C437.1 260.9 436.9 260.9 436.7 260.8C434.8 260 430.4 258.7 426.5 258.7Z" fill="#6513E1"/>
<path d="M379.8 161C379.8 148.4 382.7 138.1 402.7 138.1C415.3 138.1 427.7 147.5 425.6 161C423.6 173.5 415.4 183.9 402.7 183.9C390 183.9 379.8 173.6 379.8 161Z" fill="white"/>
<path d="M374.3 159.5C374.3 146.9 377.2 136.6 397.2 136.6C409.8 136.6 422.2 146 420.1 159.5C418.1 172 409.9 182.4 397.2 182.4C384.5 182.4 374.3 172.2 374.3 159.5Z" fill="#FAD1FF"/>
<path d="M397.2 183.9C383.8 183.9 372.8 173 372.8 159.5C372.8 146.8 375.8 135.1 397.2 135.1C404.9 135.1 412.5 138.5 417.1 143.9C421 148.4 422.5 153.9 421.6 159.8C419.2 174.2 409.4 183.9 397.2 183.9ZM397.2 138.2C379.3 138.2 375.8 146 375.8 159.6C375.8 171.4 385.4 181 397.2 181C405.5 181 416.1 175.3 418.6 159.4C419.4 154.4 418.1 149.8 414.8 146C410.7 141.1 404 138.2 397.2 138.2Z" fill="#6513E1"/>
<path d="M394.3 157.4C396.1 154.2 405 145.7 405.7 154.3C406.4 162.9 401.2 168.8 401.2 168.8C401.2 168.8 384.3 164.1 387.3 156.4C390.3 148.7 394.3 157.4 394.3 157.4Z" fill="#FAD1FF"/>
<path d="M401.2 170C401.1 170 401 170 400.9 170C400.4 169.9 389.3 166.7 386.5 161C385.7 159.4 385.6 157.7 386.3 156C387.3 153.4 388.6 152.1 390.2 152.1C392.1 152.1 393.6 153.8 394.5 155.3C396.6 152.7 400.7 148.8 403.9 149.5C405.1 149.8 406.6 150.8 406.9 154.2C407.6 163.2 402.3 169.3 402.1 169.6C401.9 169.8 401.6 170 401.2 170ZM390.2 154.4C389.8 154.4 389.1 155.1 388.4 156.8C388 157.9 388 158.9 388.6 159.9C390.4 163.5 397.5 166.4 400.8 167.4C402 165.8 405.1 160.9 404.5 154.3C404.4 153.4 404.2 151.8 403.3 151.7C401.2 151.2 396.6 155.7 395.3 157.9C395.1 158.3 394.7 158.5 394.2 158.5C393.8 158.5 393.4 158.2 393.2 157.8C392.6 156.5 391.1 154.4 390.2 154.4Z" fill="#6513E1"/>
<path d="M448.8 304.2C448.8 304.2 454.4 284.5 457.3 278.7Z" fill="#FAD1FF"/>
<path d="M448.8 305.7C448.7 305.7 448.5 305.7 448.4 305.6C447.6 305.4 447.1 304.5 447.4 303.7C447.6 302.9 453.1 283.8 456 277.9C456.4 277.2 457.3 276.8 458 277.2C458.7 277.6 459.1 278.5 458.7 279.2C455.9 284.8 450.4 304.3 450.3 304.5C450.1 305.3 449.5 305.7 448.8 305.7Z" fill="#6513E1"/>
<path d="M453.5 246.6C450.3 248.6 448.9 250.7 448.4 253.9C447.2 261.2 443.2 266.5 437.9 267.3C432.7 268.1 429.8 262.6 427.3 265.2C424.8 267.8 422.2 271.4 422.2 274.1C422.2 276.8 419.6 276.6 421 280.2C421.7 282 417.5 285.2 413.2 287.9C413.8 284.8 417.7 280.3 417.7 280.3C410.7 273.7 419.1 267.8 419.1 267.8C416 252.2 437.4 261.4 437.4 261.4C437.4 261.4 441.7 260.9 444 252C445.8 245.6 450.5 245.3 453.5 246.6Z" fill="white"/>
<path d="M470.5 111.2C470.5 111.2 441 120.9 432.8 122.3C432 122.4 431.2 122.5 430.6 122.5C424.4 122.6 423.8 117.7 423.8 117.7C423.8 117.7 416.3 88.9001 414.7 85.0001C413.1 81.2001 422 79.4001 422 79.4001C422 79.4001 426.8 77.8001 433 75.6001C443.7 72.0001 458.9 66.9001 462.3 66.3001C467.7 65.3001 469.8 76.0001 469.8 76.0001C469.8 76.0001 474.4 88.7001 476.7 98.8001C478.8 108.8 470.5 111.2 470.5 111.2Z" fill="#FAD1FF"/>
<path d="M430.4 124C424.6 124 422.5 120.1 422.2 117.9C419.6 107.9 414.4 88.4001 413.2 85.5001C412.7 84.4001 412.8 83.3001 413.3 82.3001C414.8 79.4001 420.1 78.1001 421.4 77.8001C422.1 77.6001 426.6 76.0001 432.4 74.0001C449.2 68.3001 459.2 65.1001 461.9 64.6001C467.3 63.6001 470.2 70.8001 471.1 75.4001C471.6 76.7001 475.9 88.7001 478 98.3001C480.4 109.2 471.7 112.3 471 112.6C469.8 113 441.3 122.3 433.1 123.8C432.3 123.9 431.5 124 430.6 124C430.5 124 430.5 124 430.4 124ZM462.9 67.7001C462.8 67.7001 462.6 67.7001 462.5 67.7001C460 68.2001 449.6 71.5001 433.4 77.0001C427.1 79.1001 422.4 80.8001 422.4 80.8001C422.3 80.8001 422.3 80.8001 422.2 80.9001C420 81.3001 416.7 82.5001 416 83.8001C415.9 84.0001 415.9 84.2001 416 84.5001C417.6 88.4001 424.8 116.2 425.1 117.4C425.1 117.5 425.1 117.5 425.1 117.6C425.2 118 425.8 121.1 430.4 121.2H430.5C431.2 121.2 431.8 121.1 432.5 121C440.6 119.6 469.7 110 470 110C470.3 109.9 476.9 107.8 475 99.2001C472.8 89.3001 468.2 76.7001 468.2 76.6001C468.2 76.5001 468.2 76.4001 468.1 76.4001C467.8 73.9001 465.9 67.7001 462.9 67.7001Z" fill="#6513E1"/>
<path d="M459.5 78.1001C459.5 78.1001 452.9 101.1 448.1 102.7C443.3 104.3 425.8 92.6001 425.8 92.6001L414.6 85.0001" fill="#FAD1FF"/>
<path d="M447.1 104.4C440.9 104.4 427.7 95.8001 425 93.9001L413.8 86.2001C413.1 85.7001 412.9 84.8001 413.4 84.1001C413.9 83.4001 414.8 83.2001 415.5 83.7001L426.7 91.4001C433.7 96.1001 444.8 102.3 447.6 101.3C450.1 100.5 455 88.4001 458 77.7001C458.2 76.9001 459.1 76.4001 459.9 76.7001C460.7 76.9001 461.2 77.8001 460.9 78.6001C459.3 84.2001 453.7 102.5 448.5 104.2C448.2 104.3 447.7 104.4 447.1 104.4Z" fill="#6513E1"/>
<path d="M433.3 120.8C438.9 118.3 452.5 110.7 461.6 108.6C472.8 105.9 472.8 99.6001 472.8 99.6001C472.8 99.6001 466.6 79.4001 465.2 75.5001C463.8 71.6001 458.9 72.0001 458.9 72.0001C458.9 72.0001 439.5 79.7001 436.9 79.0001C435.9 78.7001 434.8 78.1001 433.4 77.0001C443.9 73.6001 458.2 68.6001 461.6 68.0001C466.9 67.1001 468.9 77.0001 468.9 77.0001C468.9 77.0001 473.4 88.8001 475.6 98.1001C477.8 107.5 469.7 109.7 469.7 109.7" fill="white"/>
<path d="M340.8 110C340.5 119.5 336.4 120.2 334.7 122.3C333 124.3 315.6 121.3 315.6 121.3L298.8 134.7L297.2 136L303 121.7C303 121.7 289.4 121.7 280.9 120C272.4 118.3 272.7 105.7 272.7 91.7C272.7 77.7 283.1 78 289 78C289 78 291.2 78.5 294.1 79.2C298.4 80.2 304.3 81.4 306.8 81.4C311 81.4 322.8 79.4 330.6 79.4C338.5 79.4 340.8 87.6 340.8 87.6C340.8 87.6 341.1 100.5 340.8 110Z" fill="#FAD1FF"/>
<path d="M297.1 137.5C296.8 137.5 296.5 137.4 296.2 137.2C295.7 136.8 295.4 136.1 295.7 135.4L300.7 123.1C296.5 123 287 122.7 280.5 121.4C271.1 119.5 271.1 106.6 271.1 92.9V91.6C271.1 86.7 272.4 82.9 274.9 80.3C278.8 76.4 284.7 76.4 288.6 76.4H289C289.1 76.4 289.2 76.4 289.4 76.4C289.4 76.4 291.6 76.9 294.4 77.6C300.6 79 305 79.8 306.8 79.8C308.5 79.8 311.5 79.4 315.1 79C320.2 78.4 326 77.7 330.6 77.7C337.7 77.7 341.3 83.8 342.3 87C342.3 87.1 342.4 87.3 342.4 87.4C342.4 87.5 342.7 100.5 342.4 110C342.1 118.2 339.1 120.6 337.1 122.2C336.6 122.6 336.2 122.9 335.9 123.2C334.4 125 327.7 124.8 316 122.8L298 137.1C297.8 137.4 297.4 137.5 297.1 137.5ZM288.1 79.5C284.5 79.5 279.9 79.6 276.9 82.5C275 84.4 274 87.5 274 91.6V92.9C274 105.9 274 117 281 118.4C289.3 120.1 302.7 120.1 302.9 120.1C303.4 120.1 303.9 120.3 304.1 120.8C304.4 121.2 304.4 121.7 304.2 122.2L300.5 131.2L314.5 120.1C314.8 119.8 315.3 119.7 315.7 119.8C323.1 121.1 331.9 122 333.5 121.2C334 120.7 334.5 120.3 335 119.8C336.8 118.4 339 116.7 339.2 109.9C339.5 101.2 339.2 89.4 339.2 87.7C338.8 86.6 336.6 80.8 330.5 80.8C326.1 80.8 320.4 81.5 315.3 82.1C311.6 82.5 308.5 82.9 306.6 82.9C304.5 82.9 300.1 82.1 293.6 80.7C291.2 80.1 289.3 79.7 288.7 79.5H288.5C288.4 79.5 288.3 79.5 288.1 79.5Z" fill="#6513E1"/>
<path d="M153.4 179C153.4 190.6 143.2 192.3 139.4 192.7C135.6 193 124.4 192 122 192C119.6 192 125.4 202.6 125.4 202.8C125.4 203.1 134.3 208.7 127.8 208.7C124.2 208.7 118.5 205.2 113.1 201.6C108.7 198.8 104.6 195.9 101.8 195C95.6 192.9 74.1 194 62.5 192.9C50.9 191.9 38.6 183.4 39.3 160.9C39.9 141.2 57.3 139.3 61.6 139.2C62.2 139.2 62.5 139.2 62.5 139.2C62.5 139.2 112 140.4 132.8 141.4C153.9 142.5 153.4 167.4 153.4 179Z" fill="#FAD1FF"/>
<path d="M127.8 210.2C123.9 210.2 118.2 206.7 112.3 202.9L111 202.1C107.2 199.6 103.6 197.3 101.4 196.5C97.9 195.3 88.6 195.2 79.6 195.1C73.5 195 67.2 194.9 62.5 194.5C55.7 193.9 49.6 190.9 45.3 186C40.1 180.1 37.6 171.6 37.9 161C38.5 139.8 57.8 138 61.6 137.8C62.2 137.8 62.6 137.8 62.6 137.8C63.1 137.8 112.3 139 133 140C154.9 141.1 154.9 166.2 154.8 178.3V179C154.8 187.7 149.2 193.3 139.4 194.1C136.8 194.3 131.2 194 126.6 193.7C125.1 193.6 123.8 193.5 122.9 193.5C123.2 194.6 124 196.7 126.1 201C126.3 201.4 126.5 201.7 126.6 201.9C126.7 202 126.9 202.1 127 202.2C129.8 204.4 132.1 206.3 131.4 208.3C131 210.2 128.6 210.2 127.8 210.2ZM62.5 140.8C62.4 140.8 62.1 140.8 61.8 140.8C57 141 41.5 143 41 161.1C40.2 187.5 57.5 191.1 62.8 191.5C67.4 191.9 73.6 192 79.7 192.1C89.4 192.2 98.5 192.3 102.4 193.7C105.1 194.6 108.8 197 112.7 199.6L114 200.4C117.9 203 124.5 207.2 127.8 207.2C128 207.2 128.1 207.2 128.2 207.2C127.7 206.7 126.9 205.9 125.3 204.7C124.5 204.1 124.1 203.8 124 203.3C123.9 203.1 123.8 202.8 123.6 202.4C120.2 195.6 119.4 192.9 120.3 191.5C120.7 190.9 121.3 190.6 122 190.6C122.9 190.6 124.7 190.7 127 190.9C131.2 191.2 137 191.5 139.3 191.3C145.1 190.8 151.9 188.2 151.9 179.1V178.4C151.9 166.4 151.9 144 132.9 143.1C112.3 142.1 63.1 140.9 62.6 140.9C62.6 140.8 62.6 140.8 62.5 140.8Z" fill="#6513E1"/>
<path d="M203 91.3001C202.1 91.7001 201.2 92.1001 200.2 92.6001C189 97.7001 146.9 99.4001 140.1 95.0001C133.3 90.6001 134.3 80.0001 133 62.6001C132.7 58.1001 136.9 54.3001 143.4 51.2001C161.8 42.4001 198.2 39.0001 198.2 39.0001C207 38.0001 206.7 43.8001 206.7 43.8001C206.7 43.8001 211.9 70.4001 212.2 77.9001C212.4 84.8001 211.6 87.1001 203 91.3001Z" fill="#FAD1FF"/>
<path d="M161.1 99.1C150.9 99.1 142.2 98.2001 139.3 96.3001C133.2 92.3001 132.7 84.3 132.1 72.1C131.9 69.3 131.8 66.1 131.5 62.7C131.1 57.9 134.9 53.6 142.7 49.9C161.1 41.1 196.5 37.7 198 37.6C201.7 37.2 204.5 37.8 206.2 39.5C207.9 41.1 208.1 43.1 208.1 43.7C208.6 46.1 213.3 70.6001 213.6 77.9001C213.9 85.4001 212.7 88.2 203.6 92.7C202.7 93.1 201.8 93.6 200.8 94C193.8 97.2 176 99.1 161.1 99.1ZM200.1 40.4C199.5 40.4 198.9 40.4 198.3 40.5C197.9 40.5 161.9 43.9 144 52.5C137.4 55.6 134.2 59 134.5 62.4C134.8 65.8 134.9 69.0001 135.1 71.8001C135.7 83.4001 136.1 90.5 141 93.6C147.4 97.7 189 96 199.7 91.1C200.7 90.6 201.6 90.2001 202.4 89.8001C210.7 85.7001 211 83.8001 210.7 77.9001C210.4 70.6001 205.2 44.3 205.2 44C205.2 43.9 205.2 43.7 205.2 43.6C205.2 43.6 205.2 42.4 204.2 41.5C203.3 40.8 201.9 40.4 200.1 40.4Z" fill="#6513E1"/>
<path d="M396.4 200.5C396.4 200.5 392.6 208.6 387.8 218.7C385.7 223.1 383.4 227.9 381.2 232.7C378 239.6 374.8 246.2 372.6 251C371.7 253 370.9 254.7 370.3 256C365.2 267.4 356.5 261.2 356.5 261.2C356.5 261.2 325.7 249.5 314.7 244.2C303.7 238.8 306.7 230.7 306.7 230.7L315.1 209.1L315.8 207.4L327.1 178.2L393.8 199.8L396.4 200.5Z" fill="#FAD1FF"/>
<path d="M361.8 264.3C358.9 264.3 356.5 262.9 355.8 262.5C353.1 261.5 324.7 250.7 314.1 245.5C304.5 240.8 304.2 233.4 305.3 230.1L325.7 177.6C326 176.9 326.8 176.5 327.6 176.7L396.9 199.1C397.3 199.2 397.6 199.5 397.8 199.9C398 200.3 398 200.7 397.8 201.1L389.2 219.2C387.1 223.6 384.8 228.4 382.6 233.2C379.5 239.8 376.3 246.5 374 251.5C373.1 253.5 372.3 255.2 371.7 256.5C369.8 260.6 367.3 263.1 364.2 264C363.3 264.2 362.5 264.3 361.8 264.3ZM328 180L308.2 231.2C308.1 231.4 305.9 238.2 315.5 242.8C326.3 248.1 356.8 259.6 357.1 259.8C357.2 259.8 357.3 259.9 357.4 260C357.4 260 360.3 262 363.4 261.2C365.6 260.6 367.5 258.6 368.9 255.4C369.5 254.1 370.3 252.4 371.2 250.4C373.5 245.4 376.7 238.6 379.8 232.1C382 227.4 384.3 222.6 386.4 218.1L394.3 201.5L328 180Z" fill="#6513E1"/>
<path d="M372.5 250.9C371.6 252.9 370.8 254.6 370.2 255.9C365.1 267.3 356.4 261.1 356.4 261.1C356.4 261.1 325.6 249.4 314.6 244.1C303.6 238.7 306.6 230.6 306.6 230.6L315 209L315.7 207.3C316.3 207.5 316.9 207.7 317.5 207.9C324 210.2 331.7 214.1 335.5 220.4C342.8 232.5 340.5 234.4 351.3 236.4C360.3 238.2 368.7 243.1 372.5 250.9Z" fill="#FAD1FF"/>
<path d="M361.8 264.3C358.9 264.3 356.5 262.9 355.8 262.5C353.1 261.5 324.7 250.7 314.1 245.5C302.1 239.6 305.3 230.2 305.3 230.1L314.3 206.8C314.6 206.1 315.4 205.7 316.2 205.9C316.8 206.1 317.4 206.3 318 206.5C324.3 208.7 332.7 212.8 336.8 219.6C338.7 222.7 339.9 225.1 340.9 227.1C343.7 232.6 344.2 233.5 351.5 235C361.8 237 370 242.6 373.7 250.2C373.9 250.6 373.9 251.1 373.7 251.5C372.8 253.5 372 255.2 371.4 256.5C369.5 260.6 367 263.1 363.9 264C363.3 264.2 362.5 264.3 361.8 264.3ZM316.6 209.2L308.1 231.1C308 231.3 305.8 238.1 315.4 242.7C326.2 248 356.7 259.5 357 259.7C357.1 259.7 357.2 259.8 357.3 259.9C357.3 259.9 360.2 261.9 363.3 261.1C365.5 260.5 367.4 258.5 368.8 255.3C369.3 254.2 370 252.7 370.8 250.9C367.3 244.4 360.1 239.7 351 237.9C342.6 236.3 341.4 234.6 338.3 228.5C337.3 226.6 336.1 224.2 334.3 221.2C330.6 215.1 322.9 211.4 317 209.3C316.9 209.3 316.8 209.3 316.6 209.2Z" fill="#6513E1"/>
<path d="M204 90C203.1 90.4 202.2 90.8 201.2 91.2C190 95.9 147.9 97.5 141.1 93.4C134.3 89.3 135.3 79.5 134 63.4C133.7 59.2 137.9 55.7 144.4 52.9C142.3 57.7 140.3 63.2 140.6 66.7C141.1 74.2 140.7 84.7 142.4 86.3C144.1 87.9 171.5 92.6 189.2 89.2C194.8 88.2 199.8 88.8 204 90Z" fill="white"/>
<path d="M339.1 108.9C338.8 117.8 334.8 118.4 333.2 120.3C331.6 122.2 314.8 119.4 314.8 119.4L301 130.9L310.9 116.7C310.9 116.7 319.4 116.5 324.8 116.7C330.1 116.9 334.1 112.7 334.1 112.7C334.1 112.7 334.1 95.2 334.1 89.5C334.1 83.8 326 84.7 318.5 85.1C311 85.5 307.6 87 300.9 85.1C297.5 84.1 295.4 82.1 294.1 80.4C298.3 81.3 303.9 82.4 306.3 82.4C310.3 82.4 321.7 80.5 329.3 80.5C336.9 80.5 339.2 88.1 339.2 88.1C339.2 88.1 339.4 100.1 339.1 108.9Z" fill="white"/>
<path d="M390.4 200.1C373.1 196.7 347.3 190.5 339.2 188.8C327.6 186.4 327.3 197.7 324.3 202.7C323.1 204.8 323 205.9 320.1 207.2C319.5 207 318.2 206.5 317.6 206.3L328 180.1L390.4 200.1Z" fill="white"/>
<path d="M114.2 200.4C109.8 197.7 105.7 195 102.9 194.1C96.7 192.1 75.2 193.1 63.6 192.1C52 191.1 39.7 183 40.4 161.5C41 142.7 58.4 140.9 62.7 140.7C57.4 145.2 51.6 151.1 50.8 155.9C49.3 165.1 50.4 174.6 53.4 177.9C56.4 181.1 67.4 188 89.4 188C103.4 188.1 110.7 195.2 114.2 200.4Z" fill="white"/>
<path d="M73.8 173C77.666 173 80.8 169.866 80.8 166C80.8 162.134 77.666 159 73.8 159C69.9341 159 66.8 162.134 66.8 166C66.8 169.866 69.9341 173 73.8 173Z" fill="white"/>
<path d="M98.7 175C102.566 175 105.7 171.866 105.7 168C105.7 164.134 102.566 161 98.7 161C94.834 161 91.7 164.134 91.7 168C91.7 171.866 94.834 175 98.7 175Z" fill="white"/>
<path d="M127.2 176.8C131.066 176.8 134.2 173.666 134.2 169.8C134.2 165.934 131.066 162.8 127.2 162.8C123.334 162.8 120.2 165.934 120.2 169.8C120.2 173.666 123.334 176.8 127.2 176.8Z" fill="white"/>
<path d="M161.7 60.5C161.7 60.5 163.1 81.2 164.9 82.2C166.7 83.2 181.7 74.7 182.6 72.6C183.5 70.5 184.2 68 178.3 65.4C172.4 62.8 166.6 60.5 166.6 60.5" fill="#FAD1FF"/>
<path d="M165.3 83.8C164.8 83.8 164.5 83.7 164.1 83.5C163.4 83.1 161.7 82.1 160.2 60.6C160.1 59.8 160.8 59.1 161.6 59C162.4 58.9 163.1 59.6 163.2 60.4C163.8 68.7 164.9 78.4 165.7 80.8C168.7 80.1 180 73.8 181.2 72C181.8 70.5 182.5 68.9 177.6 66.8C171.7 64.2 166 61.9 165.9 61.9C165.1 61.6 164.8 60.7 165.1 60C165.4 59.2 166.3 58.9 167 59.2C167.1 59.2 172.9 61.6 178.8 64.1C185.6 67.1 185.1 70.6 183.9 73.3C182.8 75.8 171.4 82.1 167.3 83.4C166.5 83.6 165.9 83.8 165.3 83.8Z" fill="#6513E1"/>
<path d="M345.5 215C350.968 215 355.4 210.568 355.4 205.1C355.4 199.632 350.968 195.2 345.5 195.2C340.032 195.2 335.6 199.632 335.6 205.1C335.6 210.568 340.032 215 345.5 215Z" fill="#FAD1FF"/>
<path d="M345.5 216.5C339.2 216.5 334.1 211.4 334.1 205.1C334.1 198.8 339.2 193.7 345.5 193.7C351.8 193.7 356.9 198.8 356.9 205.1C356.9 211.4 351.7 216.5 345.5 216.5ZM345.5 196.8C340.9 196.8 337.1 200.5 337.1 205.2C337.1 209.9 340.8 213.6 345.5 213.6C350.2 213.6 353.9 209.9 353.9 205.2C353.9 200.5 350.1 196.8 345.5 196.8Z" fill="#6513E1"/>
<path d="M387.7 218.6C385.6 223 383.3 227.8 381.1 232.6L354 222.2C362.8 209.7 372.5 220.4 372.5 220.4C377.6 215.1 383.6 216.5 387.7 218.6Z" fill="#FAD1FF"/>
<path d="M381.1 234.1C380.9 234.1 380.7 234.1 380.6 234L353.5 223.7C353.1 223.5 352.7 223.2 352.6 222.7C352.5 222.3 352.5 221.8 352.8 221.4C355.8 217.2 359.2 215 363 214.7C367.3 214.4 370.8 216.9 372.6 218.4C376.9 214.6 382.5 214.2 388.5 217.3C389.2 217.7 389.5 218.5 389.2 219.3C387.1 223.7 384.8 228.5 382.6 233.3C382.3 233.8 381.7 234.1 381.1 234.1ZM356.5 221.6L380.4 230.7C382.2 226.9 384 223 385.8 219.4C381 217.4 377 218.1 373.7 221.5C373.4 221.8 373 222 372.6 222C372.2 222 371.8 221.8 371.5 221.5C371.5 221.5 367.8 217.5 363.2 217.7C360.8 217.8 358.6 219.1 356.5 221.6Z" fill="#6513E1"/>
<path d="M301.1 258.7C301.1 258.7 349.4 282 364.8 306.8C383 336.1 396.2 384.2 397.9 394.8C399.6 405.5 403.2 454.8 369.6 455.9C336 457 326.2 453.7 326.2 453.7L305.2 446.1L179.3 432.1L175.9 382.2C175.9 382.2 147.6 425.9 121.5 430.1C95.4 434.3 53.4 426.5 85.3 360.9C117.2 295.3 146.1 290.8 146.1 290.8C146.1 290.8 169.9 245.9 219.9 258C270 270.1 301.1 258.7 301.1 258.7Z" fill="#6513E1"/>
<path d="M356.5 457.6C333.4 457.6 326 455.2 325.6 455L304.7 447.5L179 433.5C178.3 433.4 177.7 432.8 177.7 432.1L174.6 386.5C167.1 397.2 143.9 427.9 121.7 431.5C114.4 432.7 89.6 435.3 77.9 419.6C68.7 407.2 70.7 387.2 83.9 360.1C113.4 299.6 140.2 290.5 145.1 289.4C146.6 286.9 152.5 277.2 163.3 268.6C174.7 259.5 193.8 250.1 220.3 256.4C245.9 262.6 266.4 262.5 279 261.3C292.7 260 300.5 257.2 300.6 257.2C301 257.1 301.4 257.1 301.8 257.3C303.8 258.3 350.6 281 366.1 306C384.2 335.2 397.6 383.3 399.4 394.6C399.5 395 404.8 430 390.2 447.7C385.1 453.9 378.2 457.2 369.7 457.4C364.7 457.6 360.4 457.6 356.5 457.6ZM180.6 430.7L305.2 444.6C305.3 444.6 305.4 444.6 305.5 444.7L326.5 452.3C326.6 452.3 336.6 455.5 369.4 454.5C377 454.2 383.2 451.3 387.7 445.8C401.4 429.2 396.3 395.4 396.3 395.1C394.5 384 381.3 336.5 363.4 307.6C349.3 284.8 306.3 263 300.9 260.3C296.2 261.9 266.2 270.7 219.5 259.4C199.3 254.5 181 258.4 165.2 270.9C153.4 280.3 147.4 291.3 147.4 291.4C147.2 291.8 146.8 292.1 146.3 292.2C146 292.2 117.7 297.6 86.6 361.5C73.9 387.5 71.8 406.5 80.3 417.9C90.9 432.2 114.3 429.7 121.2 428.6C146.3 424.5 174.3 381.8 174.6 381.3C175 380.8 175.6 380.5 176.2 380.7C176.8 380.9 177.3 381.4 177.3 382.1L180.6 430.7Z" fill="black"/>
<path d="M80.8 251.9C80.8 251.9 73.1 252.2 75.5 245.5C77.9 238.9 84.2 236.5 84.2 236.5H127.3C127.3 236.5 131.6 235.3 134 240.6C136.4 245.9 139.5 251.9 139.5 251.9H80.8Z" fill="white"/>
<path d="M80.6 253.4C79.6 253.4 76.2 253.2 74.4 250.8C73.3 249.3 73.2 247.3 74 245C76.6 237.8 83.3 235.2 83.5 235.1C83.7 235 83.8 235 84 235H126.9C128.9 234.5 133 235 135.2 239.9C137.6 245.1 140.7 251.1 140.7 251.2C140.9 251.7 140.9 252.2 140.7 252.7C140.4 253.1 139.9 253.4 139.4 253.4H80.7C80.8 253.4 80.7 253.4 80.6 253.4ZM84.5 238C83.4 238.5 78.8 240.8 76.9 246C76.4 247.4 76.4 248.4 76.9 249C77.7 250.1 80 250.4 80.8 250.3H137.1C136 248.1 134.2 244.4 132.6 241.1C130.8 237.2 127.9 237.8 127.6 237.9C127.5 237.9 127.3 238 127.2 238H84.5V238Z" fill="black"/>
<path d="M84.1999 270L80.7999 251.9H133.3L131 270" fill="white"/>
<path d="M84.1999 271.5C83.4999 271.5 82.8999 271 82.6999 270.3L79.3 252.2C79.2 251.8 79.2999 251.3 79.5999 251C79.8999 250.7 80.3 250.5 80.8 250.5H133.3C133.7 250.5 134.1 250.7 134.4 251C134.7 251.3 134.8 251.8 134.8 252.2L132.5 270.3C132.4 271.1 131.6 271.7 130.8 271.6C130 271.5 129.4 270.7 129.5 269.9L131.6 253.5H82.5999L85.6999 269.8C85.8999 270.6 85.2999 271.4 84.4999 271.6C84.3999 271.5 84.2999 271.5 84.1999 271.5Z" fill="black"/>
<path d="M88.2 291.7L91.4 308.6H128.2L130.4 291.7" fill="white"/>
<path d="M128.2 310.1H91.4C90.7 310.1 90.1 309.6 89.9 308.9L86.8 292C86.6 291.2 87.2 290.4 88 290.2C88.8 290 89.6 290.6 89.8 291.4L92.7 307.1H126.9L129 291.5C129.1 290.7 129.9 290.1 130.7 290.2C131.5 290.3 132.1 291.1 132 291.9L129.8 308.8C129.5 309.6 128.9 310.1 128.2 310.1Z" fill="black"/>
<path d="M84.1 236.5C84.1 236.5 88.2 225.6 91.3 225.9C94.4 226.1 119.1 225.9 119.1 225.9C119.1 225.9 124.5 226.5 127.2 236.5H84.1Z" fill="white"/>
<path d="M127.3 238H84.1C83.6 238 83.1 237.8 82.9 237.4C82.7 237 82.6 236.5 82.7 236C84.1 232.4 87.6 224.1 91.4 224.4C94.4 224.6 118.9 224.4 119.1 224.4C119.2 224.4 119.2 224.4 119.3 224.4C119.6 224.4 125.8 225.2 128.7 236.1C128.8 236.5 128.7 237 128.4 237.4C128.2 237.8 127.7 238 127.3 238ZM86.4 235H125.3C123 228.4 119.6 227.5 119.2 227.4C117.1 227.4 94.4 227.6 91.4 227.4C90.3 227.5 88.1 230.9 86.4 235Z" fill="black"/>
<path d="M131 270L128.3 291.7H88.2L84.2 270H131Z" fill="#F8C3FF"/>
<path d="M325.8 397.4C325.1 397.4 324.5 396.9 324.3 396.2C324.2 395.9 317.9 361.4 308.1 343.7C307.7 343 308 342.1 308.7 341.7C309.4 341.3 310.3 341.6 310.7 342.3C320.8 360.5 327 394.3 327.3 395.7C327.4 396.5 326.9 397.3 326.1 397.4C326 397.4 325.9 397.4 325.8 397.4Z" fill="black"/>
<path d="M353.9 403.6C353.8 403.6 353.7 403.6 353.6 403.6L338.9 400.8C338.1 400.6 337.6 399.9 337.7 399C337.9 398.2 338.6 397.7 339.5 397.8L354.2 400.6C355 400.8 355.5 401.5 355.4 402.4C355.2 403.1 354.6 403.6 353.9 403.6Z" fill="black"/>
<path d="M144.3 249.2C144.3 249.2 129.2 255.2 129.7 267.9C130.2 280.6 130.7 284.8 130.7 284.8C130.7 284.8 127.2 300.2 128.2 308.6H93.4C93.4 308.6 93.9 300.2 89.7 298.7C89.7 298.7 94.4 292 88 286C88 286 90.2 280 86.3 274.6C86.3 274.6 87.8 262.9 80.6 262.9C73.4 262.9 68.9 267.9 72.4 277.8C72.4 277.8 69.4 288.2 74.4 290.5C74.4 290.5 71.7 298.9 77.4 300.9C77.4 300.9 75.9 316.3 87.3 324.5C98.7 332.7 98.7 332.7 98.7 332.7L84.5 362C84.5 362 111.8 398.5 139.6 356C139.6 356 140.1 328.9 142.1 320.5C144.1 312.1 148.6 298.9 145.8 286C143.1 273.1 143.3 266.1 145.3 260.9C147.3 255.7 151.5 244.9 144.3 249.2Z" fill="white"/>
<path d="M110.4 378.1C94.8 378.1 83.7 363.5 83.2 362.9C82.9 362.5 82.8 361.9 83.1 361.3L96.7 333.1L86.3 325.6C76 318.2 75.6 305.6 75.7 301.7C71.7 299.6 71.8 294.4 72.5 291C68.4 287.9 70.1 279.9 70.7 277.7C68.6 271.2 69.9 267.4 71.3 265.3C73.2 262.7 76.4 261.2 80.4 261.2C82.4 261.2 84.1 261.9 85.3 263.3C88 266.4 87.8 272.1 87.7 273.9C90.8 278.5 90.1 283.3 89.6 285.3C93.9 289.8 93.1 294.8 91.7 297.8C94.3 299.9 94.8 304.4 94.9 306.8H126.5C126.1 298.6 128.7 286.3 129.1 284.4C129 283.3 128.6 278.7 128.1 267.7C127.9 262 130.5 256.7 135.8 252.4C139.3 249.5 142.9 247.9 143.6 247.6C144.5 247 147 245.6 148.7 247.1C150.9 248.9 149.7 253.2 146.7 261L146.6 261.2C144.5 266.6 144.7 273.8 147.2 285.4C149.6 296.7 146.6 308.1 144.5 316.5C144.1 318 143.8 319.3 143.5 320.6C141.6 328.8 141.1 355.5 141.1 355.8C141.1 356.1 141 356.4 140.9 356.6C131.9 370.3 121.9 377.5 111.3 377.8C111 378.1 110.7 378.1 110.4 378.1ZM86.2 361.8C88.6 364.7 98.5 375.5 111.1 375.1C120.6 374.8 129.7 368.2 138 355.6C138.1 352 138.6 328.2 140.5 320.2C140.8 318.9 141.2 317.5 141.5 316C143.6 307.9 146.4 296.9 144.2 286.3C141.6 274.1 141.5 266.4 143.8 260.4L143.9 260.2C146.1 254.4 147.1 250.8 146.7 249.7C146.5 249.7 145.9 249.9 145 250.5C144.9 250.5 144.9 250.6 144.8 250.6C144.7 250.7 130.6 256.4 131.1 267.8C131.6 280.2 132.1 284.5 132.1 284.6C132.1 284.8 132.1 284.9 132.1 285.1C132.1 285.3 128.7 300.3 129.6 308.4C129.6 308.8 129.5 309.3 129.2 309.6C128.9 309.9 128.5 310.1 128.1 310.1H93.4C93 310.1 92.6 309.9 92.3 309.6C92 309.3 91.9 308.9 91.9 308.5C92 306.6 91.7 301 89.2 300.1C88.8 299.9 88.4 299.6 88.3 299.1C88.2 298.7 88.2 298.2 88.5 297.8C88.7 297.6 92.4 292.1 87 287.1C86.6 286.7 86.4 286 86.6 285.5C86.7 285.3 88.5 280.2 85.1 275.5C84.9 275.2 84.8 274.8 84.8 274.4C85 272.7 85.2 267.7 83.2 265.5C82.5 264.8 81.7 264.4 80.6 264.4C78.5 264.4 75.6 264.9 73.9 267.2C72.3 269.4 72.3 272.9 73.8 277.3C73.9 277.6 73.9 277.9 73.8 278.2C73.1 280.6 71.9 287.7 75 289.1C75.7 289.4 76 290.2 75.8 290.9C75.8 291 73.6 298 77.8 299.4C78.5 299.6 78.9 300.3 78.8 301C78.8 301.1 77.6 315.6 88.1 323.2L99.5 331.4C100.1 331.8 100.3 332.6 100 333.3L86.2 361.8Z" fill="black"/>
<path d="M121.2 323.1C121.2 323.1 121.2 314.4 130.9 315.2C140.6 316 234.5 324.9 234.5 324.9C234.5 324.9 241 324.4 242.4 334.1C243.7 343.8 257.8 404.4 257.8 404.4C257.8 404.4 262.6 411.5 244.8 409.4C227 407.3 146.2 400.7 146.2 400.7C146.2 400.7 138.6 401.8 136 389C133.4 376.2 121.2 323.1 121.2 323.1Z" fill="#303030"/>
<path d="M250.5 411.3C248.8 411.3 246.8 411.2 244.5 410.9C227.2 408.9 149.8 402.5 146.1 402.2C144.7 402.3 137.1 402.3 134.4 389.2C131.8 376.5 119.8 323.9 119.7 323.4C119.7 323.3 119.7 323.2 119.7 323.1C119.7 322.9 119.7 318.9 122.7 316.1C124.7 314.2 127.5 313.4 131 313.7C140.4 314.5 230.7 323 234.5 323.4C237.3 323.3 242.6 325.2 243.8 333.9C245.1 343.1 258.1 399.6 259.1 403.8C259.7 404.8 260.2 406.7 259.2 408.3C258.1 410.3 255.2 411.3 250.5 411.3ZM146.1 399.2H146.2C147 399.3 227.2 405.8 244.9 407.9C254.8 409.1 256.4 407.2 256.7 406.8C257.1 406.2 256.5 405.2 256.5 405.2C256.4 405.1 256.3 404.9 256.3 404.7C255.7 402.2 242.2 343.9 240.9 334.3C239.8 326.1 234.7 326.4 234.7 326.4C234.6 326.4 234.5 326.4 234.4 326.4C233.5 326.3 140.4 317.5 130.8 316.7C128.2 316.5 126.2 317 124.8 318.3C123 319.9 122.8 322.4 122.7 323C123.5 326.5 134.8 376.3 137.4 388.7C139.7 399.9 145.7 399.3 146 399.3C146 399.2 146.1 399.2 146.1 399.2Z" fill="black"/>
<path d="M183.48 371.039C187.485 370.576 190.295 366.42 189.756 361.757C189.217 357.093 185.534 353.688 181.529 354.151C177.523 354.614 174.714 358.77 175.253 363.433C175.791 368.096 179.475 371.502 183.48 371.039Z" fill="white"/>
<path d="M215.1 342.7C215.1 345.9 217.8 348.5 221.1 348.3C228.1 347.8 239.1 347.3 242.4 348.8C247.3 351.1 216.7 346.5 212.3 367.6C212.3 373.5 216.7 373 216.7 373C216.7 373 211 383.4 222.3 384.9C222.3 384.9 220.1 391.3 228.6 391.5C237.1 391.6 253.6 386.6 254.6 389.3C255.6 392 256.3 399.1 257.4 402.8C258.5 406.5 303 445.4 308.2 447.2C313.4 449.1 326.1 453.7 326.1 453.7C326.1 453.7 345.1 436.5 339.2 399.3L277 383.7C277 383.7 272.9 361.1 272.8 356.6C272.7 352.1 269.9 338.7 255.4 336.9C243.5 335.4 229 336.1 220.1 337.1C217.2 337.5 215.1 339.9 215.1 342.7Z" fill="white"/>
<path d="M326.1 455.2C325.9 455.2 325.8 455.2 325.6 455.1L307.7 448.6C303.6 447.1 282.7 428.9 280.3 426.8C273.3 420.7 256.8 406.1 256 403.2C255.4 401.3 255 398.6 254.5 396C254.1 393.7 253.7 391.4 253.3 390C251.9 389.6 246.4 390.5 242.4 391.2C237.5 392.1 232.5 392.9 228.7 392.9C225.4 392.8 223 391.9 221.7 390C220.8 388.7 220.6 387.1 220.7 386C217.7 385.3 215.7 383.9 214.7 381.8C213.3 379.1 214 376 214.7 374C214.1 373.8 213.6 373.5 213 373C211.7 371.8 211 369.9 211 367.4C211 367.3 211 367.2 211 367.1C213.6 354.8 224.5 350.7 232.8 349.1C229.6 349.1 225.8 349.3 221.4 349.6C219.4 349.7 217.5 349.1 216.1 347.7C214.7 346.4 213.8 344.5 213.8 342.5C213.8 338.9 216.5 335.9 220 335.5C228.9 334.5 243.6 333.8 255.7 335.3C273.6 337.5 274.4 355.7 274.4 356.4C274.5 360.2 277.7 378 278.4 382.3L339.7 397.7C340.3 397.8 340.7 398.3 340.8 398.9C346.7 436.5 328 453.9 327.2 454.6C326.8 455 326.4 455.2 326.1 455.2ZM252 387C254.2 387 255.4 387.5 255.9 388.8C256.4 390.3 256.9 392.8 257.3 395.5C257.7 398 258.2 400.6 258.7 402.3C260.5 406.2 303.9 444.1 308.6 445.8L325.6 451.9C328.7 448.6 342.4 431.9 337.8 400.5L276.6 385.2C276 385.1 275.6 384.6 275.5 384C275.3 383.1 271.4 361.3 271.2 356.7C271.2 356 270.5 340.3 255.2 338.5C243.4 337 228.9 337.7 220.2 338.7C218.2 338.9 216.6 340.7 216.6 342.7C216.6 343.8 217.1 344.9 217.9 345.7C218.7 346.5 219.8 346.9 221 346.8C232.9 345.9 240.3 346.1 243.1 347.5C244.2 348 244.6 348.7 244.5 349.5C244.3 350.9 243 351 240.1 351.3C233.2 352 217 353.5 213.9 367.8C213.9 369.3 214.3 370.4 214.9 371C215.6 371.7 216.6 371.6 216.6 371.6C217.1 371.6 217.7 371.8 218 372.3C218.3 372.8 218.3 373.3 218.1 373.8C217.5 374.9 216.1 378.4 217.3 380.7C218.1 382.2 219.8 383.1 222.6 383.5C223 383.6 223.4 383.8 223.7 384.2C224 384.6 224 385 223.8 385.5C223.8 385.5 223.2 387.3 224.1 388.5C225 389.8 227.1 390 228.7 390.1C232.2 390.2 237.3 389.3 241.9 388.5C246.4 387.5 249.7 387 252 387Z" fill="black"/>
<path d="M216.6 374.5C216.3 374.5 216 374.4 215.7 374.2C215 373.7 214.9 372.8 215.3 372.1C215.7 371.5 226.3 356.8 245.8 358.2C246.6 358.3 247.2 359 247.2 359.8C247.1 360.6 246.4 361.3 245.6 361.2C227.8 359.9 217.9 373.7 217.8 373.9C217.6 374.3 217.1 374.5 216.6 374.5Z" fill="black"/>
<path d="M222.2 386.4C221.9 386.4 221.6 386.3 221.3 386.1C220.6 385.6 220.5 384.7 221 384C221.4 383.5 229.9 371.9 247.4 368.8C248.2 368.7 249 369.2 249.1 370C249.2 370.8 248.7 371.6 247.9 371.7C231.7 374.6 223.5 385.6 223.4 385.7C223.2 386.2 222.7 386.4 222.2 386.4Z" fill="black"/>
<path d="M183.7 192C183.7 192 191.8 246.1 217.1 257.1C217.1 257.1 219.5 282.8 235.2 287C250.9 291.2 277.7 284.9 301.1 258.6C301.1 258.6 280.4 252.3 278.5 252.3C276.7 252.3 266.7 234.4 271.4 228.9C276.1 223.4 283.2 214.5 283.2 214.5L262.2 160.9L186.6 183L183.7 192Z" fill="white"/>
<path d="M244.9 289.8C241.2 289.8 237.8 289.4 234.8 288.6C227.9 286.8 222.3 280.7 218.8 271.1C216.7 265.5 215.9 260.2 215.7 258.2C190.6 246.2 182.6 194.5 182.3 192.3C182.3 192.1 182.3 191.8 182.4 191.6L185.3 182.7C185.5 182.2 185.8 181.9 186.3 181.7L261.9 159.6C262.6 159.4 263.4 159.8 263.7 160.5L284.7 214.1C284.9 214.6 284.8 215.2 284.5 215.6C284.4 215.7 277.3 224.6 272.6 230.1C271.8 231.1 271.5 232.8 271.8 235.2C272.7 241.6 277.4 249.8 278.9 251C282 251.4 296.9 255.9 301.5 257.3C302 257.4 302.4 257.8 302.5 258.3C302.6 258.8 302.5 259.3 302.2 259.7C283.2 281.1 261.4 289.8 244.9 289.8ZM185.2 192.1C186 196.7 194.5 245.6 217.6 255.7C218.1 255.9 218.4 256.4 218.5 256.9C218.5 257.1 221 281.6 235.5 285.5C251 289.6 276.3 283.1 298.3 259.3C289.2 256.5 279.6 253.8 278.4 253.7C276.1 253.7 273 247.5 271.8 244.9C269.7 240.3 266.7 232 270.2 227.9C274.1 223.3 279.7 216.4 281.4 214.2L261.2 162.7L187.6 184.2L185.2 192.1Z" fill="black"/>
<path d="M220.9 243.8C219.5 243.8 217.8 243.5 216.4 242.1C214.5 240.1 213.8 236.6 214.5 231.4C216.1 218.7 209 211.6 201.2 205.9C193.2 200 178.6 208.3 178.4 208.4C177.7 208.8 176.8 208.6 176.4 207.8C176 207.1 176.2 206.2 177 205.8C177.7 205.4 193.5 196.5 203.1 203.5C211.3 209.5 219.4 217.6 217.6 231.8C217 237 217.8 239.2 218.7 240.1C219.6 241 220.9 241 222.2 240.8C222.5 240.8 222.8 240.7 223 240.7C223.8 240.7 224.5 241.4 224.5 242.2C224.5 243 223.8 243.7 223 243.7C222.9 243.7 222.7 243.7 222.5 243.7C222 243.7 221.5 243.8 220.9 243.8Z" fill="black"/>
<path d="M224.1 250.2C223.3 250.2 222.6 249.5 222.6 248.7C222.6 247.9 223.3 247.2 224.1 247.2C224.2 247.2 233.2 247.1 235.6 241.6C235.9 240.8 236.8 240.5 237.6 240.8C238.4 241.1 238.7 242 238.4 242.8C235.1 250.1 224.6 250.2 224.1 250.2Z" fill="black"/>
<path d="M242.4 206.6C242 206.6 241.6 206.4 241.3 206.1C238 202.6 233.6 201.3 228.2 202.2C224 202.9 220.7 204.8 220.7 204.8C220 205.2 219.1 205 218.7 204.2C218.3 203.5 218.5 202.6 219.2 202.2C219.3 202.1 222.9 200.1 227.6 199.3C234 198.2 239.5 199.8 243.5 204.1C244.1 204.7 244 205.7 243.4 206.2C243.1 206.5 242.7 206.6 242.4 206.6Z" fill="black"/>
<path d="M230.2 260.9C225.9 260.9 221.4 260.1 216.5 258.5C215.7 258.2 215.3 257.4 215.5 256.6C215.8 255.8 216.6 255.4 217.4 255.6C227 258.8 235.3 258.6 242.2 255C252.5 249.7 256.2 238.5 256.2 238.4C256.4 237.6 257.3 237.2 258.1 237.4C258.9 237.6 259.3 238.5 259.1 239.3C258.9 239.8 255.1 251.8 243.6 257.6C239.6 259.9 235.1 260.9 230.2 260.9Z" fill="black"/>
<path d="M242.4 274.1C241.8 274.1 241.3 273.8 241.1 273.3L234.4 259.6C234 258.9 234.3 258 235.1 257.6C235.8 257.2 236.7 257.5 237.1 258.3L243.8 272C244.2 272.7 243.9 273.6 243.1 274C242.8 274.1 242.6 274.1 242.4 274.1Z" fill="black"/>
<path d="M205.293 225.242C207.264 224.985 208.55 222.379 208.165 219.422C207.78 216.465 205.87 214.276 203.899 214.532C201.927 214.789 200.641 217.394 201.026 220.352C201.411 223.309 203.321 225.498 205.293 225.242Z" fill="black"/>
<path d="M234.4 224.443C236.372 224.186 237.658 221.581 237.273 218.624C236.888 215.666 234.977 213.477 233.006 213.734C231.034 213.99 229.748 216.596 230.133 219.553C230.518 222.51 232.429 224.7 234.4 224.443Z" fill="black"/>
<path d="M269 230C272.4 227 277.1 221.9 277.1 217C277.1 211.5 273.3 208.1 269.8 208.1C268.1 208.1 266.8 208.9 266.1 210.3C265.8 210.8 265.5 211.6 265.1 212.5C261.9 219.6 259.6 223.1 258.4 223.1C256 222.9 255.3 214.6 255 211.1C254.6 205.3 251 183.6 241.5 183.6C240.7 183.6 239.9 183.8 239.1 184.1C237.8 184.6 236.2 185.3 234.4 186C227.3 189 216.6 193.6 206 193.6C200.8 193.6 196.1 192.5 192 190.2C191.8 190.1 191.5 190 191.3 190C191.2 190 191 190 190.9 190.1C190.5 190.2 190.2 190.5 190 190.8L185.7 198.7H182.7C171.8 195.8 165.2 192.1 165.3 190.7C165.3 190.7 165.6 189 174.5 187.4C175.1 187.3 175.5 186.9 175.7 186.3C175.9 185.7 175.7 185.2 175.3 184.8C174 183.7 170.6 180.2 169.8 178C169.7 177.6 169.7 177.4 169.7 177.3C169.7 177.3 169.9 177.2 170.2 177.1L170.9 176.9C176.4 175.6 182.6 174.2 189.2 164.4C189.8 163.5 190.4 162.6 191 161.5C196.2 153.2 204.1 140.7 227 140.7C233.2 140.7 240.3 141.6 248 143.5C248.1 143.5 248.1 143.5 248.2 143.5C248.3 143.5 261.1 145.2 272 158C279.1 166.3 283.9 177.5 286.3 191.1C288.9 206.2 287.5 217.1 282.1 223.5C278 228.4 272.6 229.7 269 230Z" fill="black"/>
<path d="M226.9 139.3V142.3C233 142.3 240 143.2 247.6 145.1C247.7 145.1 247.8 145.1 247.9 145.2C247.9 145.2 251 145.6 255.4 147.5C259.4 149.3 265.3 152.7 270.8 159.2C277.7 167.3 282.4 178.2 284.7 191.6C287.2 206.2 285.9 216.7 280.8 222.8C278.6 225.4 276 226.8 273.5 227.7C276.2 224.7 278.5 220.9 278.5 217.1C278.5 210.7 274 206.7 269.7 206.7C267.5 206.7 265.6 207.8 264.6 209.7C264.3 210.3 264 211 263.6 211.9C261.2 217.2 259.4 220.4 258.3 221.4C257.5 220.3 256.9 216.8 256.4 211C256.1 207.1 254.9 200.4 253 194.8C250.1 186.4 246.2 182.1 241.4 182.1C240.4 182.1 239.4 182.3 238.5 182.7C237.1 183.2 235.6 183.9 233.7 184.7C226.7 187.7 216.2 192.2 205.9 192.2C200.9 192.2 196.5 191.1 192.6 189C192.2 188.8 191.7 188.6 191.2 188.6C190.9 188.6 190.6 188.6 190.4 188.7C189.6 188.9 189 189.4 188.6 190.1L184.7 197.2H182.8C176 195.4 169.4 192.7 167.2 191C168.2 190.5 170.3 189.7 174.6 189C175.7 188.8 176.7 188 177 186.9C177.3 185.8 177 184.6 176.1 183.8C174.6 182.4 172.4 180.1 171.4 178.4C176.8 177.1 183.5 175.4 190.3 165.3C190.9 164.4 191.5 163.4 192.2 162.4C197.5 153.9 204.8 142.3 226.9 142.3V139.3ZM226.9 139.3C200.3 139.3 193.2 155.8 187.9 163.7C181.3 173.4 175.3 174.5 169.8 175.8C168.1 176.2 167.9 177.3 168.3 178.6C169.4 181.7 174.2 186 174.2 186C146.6 190.7 182.5 200.2 182.5 200.2H186.6L191.3 191.5C196 194 201 195 206 195C219.5 195 232.9 187.9 239.6 185.4C240.3 185.2 240.9 185 241.5 185C249.4 185 253.1 204.8 253.5 211.1C254 217.9 254.8 224.2 258.2 224.5H258.3C261.7 224.5 265.8 213.9 267.4 210.8C267.9 209.9 268.8 209.4 269.8 209.4C272.3 209.4 275.6 212 275.6 216.8C275.6 223.6 264.8 231.3 264.8 231.3C264.8 231.3 265.7 231.4 267.2 231.4C274.3 231.4 294.2 228.2 287.7 190.8C284.9 175 279.3 164.2 273.1 157C261.6 143.5 248.3 142 248.3 142C240 140.1 233 139.3 226.9 139.3Z" fill="black"/>
<path d="M272.5 159.6C267.5 154.4 256.1 147.8 246.2 146C229.1 143 214.3 146.3 205.2 157.7C198.4 166.2 190.8 180.4 184.8 182.1C181.8 183 177.6 181.8 174.2 180.5C173.8 179.2 174 178.1 175.6 177.7C180.8 176.4 186.5 175.4 192.6 165.9C198.8 156.4 207.4 134.4 249.3 144.9C249.3 145 261.7 146.5 272.5 159.6Z" fill="white"/>
<path d="M72.3 279.5C72 279.5 71.6 279.4 71.3 279.2C70.5 278.7 70.4 277.6 70.9 276.9C71 276.7 74.1 272.3 79.1 271.7C82.1 271.4 84.9 272.4 87.7 274.9C88.4 275.5 88.5 276.6 87.8 277.3C87.1 278 86.1 278.1 85.4 277.4C83.4 275.6 81.4 274.8 79.5 275.1C76.1 275.5 73.7 278.8 73.7 278.9C73.4 279.3 72.8 279.5 72.3 279.5Z" fill="black"/>
<path d="M74.3 292.2C74.1 292.2 73.8 292.2 73.6 292C72.8 291.6 72.4 290.6 72.8 289.8C72.9 289.6 75.4 284.2 80.4 282.9C83.3 282.1 86.4 282.9 89.6 285.1C90.4 285.6 90.5 286.7 90 287.4C89.5 288.1 88.4 288.3 87.7 287.8C85.4 286.2 83.3 285.6 81.4 286.1C77.9 287 76 291.2 76 291.2C75.5 291.8 74.9 292.2 74.3 292.2Z" fill="black"/>
<path d="M96.4 318.1C95.8 318.1 95.1 317.7 94.9 317.1C94.8 316.9 93.1 313 91.8 309.2C91.8 309.1 91.8 309.1 91.8 309C90.6 303.2 88.6 299.8 86 299C82.5 298 78.5 302.1 78.5 302.1C77.9 302.8 76.8 302.8 76.1 302.1C75.4 301.5 75.4 300.4 76.1 299.7C76.3 299.5 81.5 294.1 87 295.7C90.9 296.8 93.6 301 95.1 308.1C96.3 311.7 98 315.6 98 315.6C98.4 316.4 98 317.4 97.1 317.8C96.9 318 96.7 318.1 96.4 318.1Z" fill="black"/>
</svg>
