<svg width="64" height="64" viewBox="0 0 64 64" fill="none" xmlns="http://www.w3.org/2000/svg">
<rect width="64" height="64" fill="white"/>
<path d="M24.7675 42.3534C24.3312 42.2362 23.8265 42.0003 23.5074 41.4467C23.0827 40.6643 23.1576 39.5148 23.8112 37.9528C25.3733 34.1286 23.755 31.3212 21.8013 28.8915C19.8021 26.3828 14.5567 27.747 14.486 27.7614C14.2343 27.8275 13.9705 27.6898 13.9129 27.407C13.8468 27.1553 13.9845 26.8915 14.2673 26.8339C14.519 26.7678 20.1886 25.317 22.5945 28.3026C24.6477 30.8593 26.494 34.0621 24.7439 38.337C24.1214 39.9075 24.1865 40.6601 24.3917 41.016C24.5968 41.3719 25.002 41.4807 25.4239 41.5272C25.5174 41.5524 25.6193 41.5463 25.6816 41.5631C25.9309 41.6301 26.0905 41.9068 26.0235 42.1562C25.9565 42.4055 25.6797 42.5651 25.4304 42.4981C25.3992 42.4897 25.3369 42.4729 25.2746 42.4562C25.1187 42.4143 24.9545 42.4036 24.7675 42.3534Z" fill="#6F47AC"/>
<path d="M25.229 44.616C24.9797 44.549 24.8201 44.2722 24.8871 44.0229C24.9541 43.7736 25.2309 43.614 25.4802 43.681C25.5114 43.6894 28.3248 44.4119 29.5334 42.8986C29.6939 42.6744 29.9995 42.6563 30.2237 42.8168C30.4479 42.9773 30.466 43.2829 30.3055 43.5071C28.6658 45.506 25.3849 44.6579 25.229 44.616Z" fill="#6F47AC"/>
<path d="M34.5836 32.5597C34.4589 32.5262 34.351 32.4304 34.2826 32.3118C33.5472 30.9446 32.2847 30.171 30.5263 29.9993C29.1587 29.8657 27.9711 30.1816 27.9711 30.1816C27.7195 30.2476 27.4557 30.1099 27.398 29.8271C27.332 29.5754 27.4697 29.3117 27.7213 29.2456C27.7609 29.2228 29.0504 28.901 30.5822 29.0452C32.669 29.2383 34.2492 30.1975 35.1358 31.8727C35.2725 32.1099 35.1576 32.4132 34.9288 32.5188C34.8101 32.5872 34.6771 32.5848 34.5836 32.5597Z" fill="#6F47AC"/>
<path d="M26.234 48.4617C24.8939 48.1016 23.5584 47.4754 22.1652 46.5664C21.941 46.406 21.8833 46.1231 22.0126 45.8905C22.1731 45.6663 22.4559 45.6086 22.6885 45.738C25.4126 47.5392 28.0162 48.1719 30.4681 47.6277C34.1221 46.8384 36.2132 43.6575 36.2215 43.6263C36.3509 43.3937 36.6649 43.3444 36.8974 43.4738C37.13 43.6031 37.1793 43.9171 37.05 44.1497C36.9458 44.2888 34.7566 47.7106 30.6867 48.5553C29.2475 48.9371 27.7612 48.872 26.234 48.4617Z" fill="#6F47AC"/>
<path d="M28.9312 53.5973C28.7442 53.5471 28.6135 53.4117 28.593 53.2391L27.652 48.4082C27.586 48.1565 27.7548 47.9012 28.0377 47.8435C28.2893 47.7774 28.5447 47.9463 28.6024 48.2291L29.5434 53.06C29.6094 53.3117 29.4405 53.5671 29.1577 53.6248C29.0558 53.6308 28.9935 53.6141 28.9312 53.5973Z" fill="#6F47AC"/>
<path d="M21.4573 35.2624C22.0933 35.3475 22.7123 34.6432 22.8399 33.6892C22.9676 32.7353 22.5555 31.893 21.9196 31.8079C21.2836 31.7228 20.6646 32.4272 20.537 33.3811C20.4093 34.335 20.8214 35.1773 21.4573 35.2624Z" fill="#6F47AC"/>
<path d="M30.5961 37.4509C31.2321 37.536 31.8511 36.8317 31.9787 35.8777C32.1064 34.9238 31.6943 34.0815 31.0584 33.9964C30.4224 33.9113 29.8034 34.6156 29.6757 35.5696C29.5481 36.5235 29.9602 37.3658 30.5961 37.4509Z" fill="#6F47AC"/>
<path d="M40.9145 42.0802C42.2254 41.4299 44.1173 40.234 44.5276 38.7068C44.9882 36.9927 44.0885 35.6148 42.9977 35.3217C42.4679 35.1793 41.9957 35.3198 41.6603 35.6975C41.5249 35.8282 41.3645 36.0525 41.1644 36.2995C39.5725 38.2443 38.5626 39.1426 38.1886 39.0421C37.4574 38.7788 37.9342 36.1333 38.1338 35.0174C38.4948 33.1762 39.1899 26.1115 36.2291 25.316C35.9798 25.249 35.7137 25.2444 35.4392 25.2709C34.9922 25.3179 34.4349 25.402 33.8153 25.4695C31.3512 25.8099 27.6312 26.3476 24.3275 25.46C22.7068 25.0245 21.3341 24.2881 20.2489 23.228C20.1949 23.1801 20.1098 23.1238 20.0474 23.107C20.0163 23.0986 19.9539 23.0819 19.9144 23.1047C19.7813 23.1024 19.6627 23.1707 19.5753 23.2475L17.5736 25.3496L16.6386 25.0984C13.4842 23.2818 11.737 21.5759 11.8854 21.148C11.8854 21.148 12.1213 20.6433 15.0291 20.8899C15.2245 20.9089 15.3827 20.8178 15.4952 20.6475C15.6078 20.4773 15.5874 20.3047 15.4962 20.1465C15.1831 19.6948 14.4165 18.3193 14.3514 17.5666C14.3538 17.4336 14.3705 17.3712 14.3789 17.3401C14.3789 17.3401 14.4496 17.3257 14.5515 17.3196L14.7864 17.3159C16.6094 17.3713 18.659 17.4541 21.5366 14.9525C21.799 14.7222 22.0614 14.4919 22.3405 14.1994C24.6562 12.048 28.1651 8.81363 35.3023 10.7312C37.2346 11.2504 39.3721 12.1255 41.6129 13.3624C41.644 13.3708 41.644 13.3708 41.6752 13.3792C41.7064 13.3875 45.5534 14.9892 47.8787 19.8913C49.3965 23.0727 49.9546 26.9654 49.5638 31.405C49.1097 36.3289 47.7606 39.6089 45.5417 41.1514C43.8535 42.3352 42.0616 42.2882 40.9145 42.0802Z" fill="#6F47AC"/>
<path d="M35.3883 10.2865L35.1371 11.2215C37.0383 11.7323 39.1446 12.599 41.3542 13.8276C41.3853 13.836 41.4165 13.8443 41.4393 13.8839C41.4393 13.8839 42.372 14.2681 43.5842 15.2288C44.6802 16.1247 46.2343 17.6784 47.4042 20.1648C48.8764 23.2672 49.4285 27.0579 49.0232 31.4269C48.5798 36.1866 47.2954 39.3502 45.1951 40.8243C44.2917 41.4504 43.3641 41.6691 42.5096 41.7402C43.6023 41.0313 44.6373 40.0396 44.9555 38.8552C45.4915 36.8605 44.4239 35.237 43.0838 34.877C42.3981 34.6927 41.7138 34.8765 41.243 35.3849C41.0993 35.5468 40.9472 35.7398 40.7471 35.9868C39.5553 37.4377 38.7263 38.2843 38.2998 38.5039C38.1426 38.094 38.2486 36.953 38.5785 35.1034C38.8116 33.8628 38.9986 31.6741 38.8754 29.7697C38.6749 26.9088 37.8195 25.2421 36.3235 24.8401C36.0118 24.7564 35.6834 24.735 35.3694 24.7843C34.8912 24.8229 34.3651 24.9155 33.7059 25.0057C31.2731 25.3545 27.6237 25.8778 24.4135 25.0153C22.8552 24.5966 21.576 23.8853 20.5363 22.9042C20.4284 22.8084 20.2893 22.7042 20.1335 22.6623C20.04 22.6372 19.9465 22.6121 19.8758 22.6265C19.6097 22.6218 19.3808 22.7274 19.1975 22.9121L17.3875 24.7983L16.7953 24.6392C14.8267 23.5088 12.9958 22.1146 12.4525 21.4006C12.806 21.3285 13.5275 21.255 14.9263 21.3969C15.2859 21.4267 15.6645 21.2611 15.8501 20.9434C16.0358 20.6257 16.0427 20.2265 15.8292 19.9018C15.479 19.3399 14.9859 18.4388 14.8166 17.8253C16.6084 17.8723 18.839 17.9035 21.8041 15.3251C22.0664 15.0948 22.3372 14.8334 22.6391 14.5803C25.0027 12.375 28.2492 9.37091 35.1371 11.2215L35.3883 10.2865ZM35.3883 10.2865C27.098 8.05909 23.5034 12.6071 21.1901 14.6254C18.3208 17.0959 16.3587 16.9363 14.5356 16.8809C13.9723 16.8633 13.8178 17.1893 13.8337 17.628C13.9169 18.6863 15.0528 20.4284 15.0528 20.4284C6.05722 19.5821 16.4506 25.5491 16.4506 25.5491L17.7284 25.8925L19.9218 23.5745C21.1773 24.7473 22.6519 25.4776 24.2102 25.8963C28.4178 27.0268 33.1886 25.936 35.4862 25.7179C35.7211 25.7142 35.9248 25.7021 36.1118 25.7523C38.574 26.4139 38.0692 32.8947 37.6663 34.8917C37.2527 37.053 36.9745 39.0835 38.009 39.4617L38.0402 39.47C39.0999 39.7548 41.2653 36.7944 42.0236 35.9622C42.2548 35.7236 42.5772 35.6431 42.8888 35.7268C43.668 35.9362 44.4788 37.0229 44.0768 38.5189C43.5074 40.6382 39.4966 42.1337 39.4966 42.1337C39.4966 42.1337 39.7687 42.2402 40.2362 42.3658C42.4491 42.9604 48.9192 43.6294 50.0252 31.4287C50.4756 26.2699 49.6347 22.435 48.3052 19.6718C45.8515 14.5013 41.8319 12.92 41.8319 12.92C39.4042 11.6328 37.2895 10.7973 35.3883 10.2865Z" fill="#6F47AC"/>
<path d="M47.9005 20.4319C46.7776 18.3925 43.7773 15.3809 40.8425 13.9908C35.7642 11.6239 30.8751 11.4131 27.0843 14.2041C24.2532 16.2838 20.6955 20.0731 18.6831 20.1005C17.6727 20.1298 16.4642 19.4041 15.5134 18.7142C15.4976 18.2756 15.652 17.9495 16.1842 17.9588C17.9137 17.9891 19.774 18.1547 22.4707 15.7047C25.1985 13.263 29.7211 7.12644 41.9008 13.9076C41.8924 13.9388 45.6315 15.4446 47.9005 20.4319Z" fill="white"/>
</svg>
